<?xml version="1.0" encoding="UTF-8" standalone="no"?>
<svg width="34px" height="36px" viewBox="0 0 34 36" version="1.1" xmlns="http://www.w3.org/2000/svg" xmlns:xlink="http://www.w3.org/1999/xlink">
    <!-- Generator: Sketch 39.1 (31720) - http://www.bohemiancoding.com/sketch -->
    <title>Combined Shape</title>
    <desc>Created with Sketch.</desc>
    <defs></defs>
    <g id="Page-1" stroke="none" stroke-width="1" fill="none" fill-rule="evenodd">
        <g id="Desktop-Copy-4" transform="translate(-224.000000, -23.000000)" fill="#87A26B">
            <path d="M244,35.5 L244,39 L238,39 L238,23 L234,23 L234,39 L230,39 L230,39.0708889 C226.607706,39.5561185 224,42.4735281 224,46 C224,49.5264719 226.607706,52.4438815 230,52.9291111 L230,53 L238,53 L238,43 L244,43 L244,59 L248,59 L248,43 L249,43 L251,43 C254.865993,43 258,39.8659932 258,36 C258,32.1340068 254.865993,29 251,29 L244,29 L244,35.5 L244,35.5 Z M228,46 C228,44.3431458 229.346517,43 231,43 L234,43 L234,49 L231,49 C229.343146,49 228,47.6534829 228,46 L228,46 Z M254,36 C254,37.6568542 252.653483,39 251,39 L248,39 L248,33 L251,33 C252.656854,33 254,34.3465171 254,36 L254,36 Z" id="Combined-Shape"></path>
        </g>
    </g>
</svg>