<?xml version="1.0" encoding="UTF-8" standalone="no"?>
<svg width="135px" height="135px" viewBox="0 0 135 135" version="1.1" xmlns="http://www.w3.org/2000/svg" xmlns:xlink="http://www.w3.org/1999/xlink">
    <!-- Generator: Sketch 39.1 (31720) - http://www.bohemiancoding.com/sketch -->
    <title>Artboard</title>
    <desc>Created with Sketch.</desc>
    <defs></defs>
    <g id="Page-1" stroke="none" stroke-width="1" fill="none" fill-rule="evenodd">
        <g id="Artboard" fill="#D8D8D8">
            <path d="M130.256059,135 L128.173932,135 C128.060189,134.518481 128,134.016269 128,133.5 C128,129.910149 130.910149,127 134.5,127 L135,127 L135,129 L134.5,129 C132.014719,129 130,131.014719 130,133.5 C130,134.025953 130.090231,134.530832 130.256059,135 L130.256059,135 Z M135,3 L135,5 L135,5 L134.5,5 C131.426418,5 128.851096,2.8667 128.173932,0 L130.256059,0 C130.873813,1.74778856 132.540672,3 134.5,3 L135,3 L135,3 Z M4,135 L6,135 L6,129 L6,124 L6,99 L8,99 L8,135 L10,135 L10,129 L19,129 L19,135 L21,135 L21,129 L23,129 L23,135 L25,135 L25,129 L30,129 L30,128.988305 C35.5668168,128.727328 40,124.131377 40,118.5 C40,112.868623 35.5668168,108.272672 30,108.011695 L30,108 L19,108 L19,123 L10,123 L10,111 L10,99 L15,99 L15,98.9883049 C20.5668168,98.7273284 25,94.1313769 25,88.5 C25,82.8686231 20.5668168,78.2726716 15,78.0116951 L15,78 L4,78 L4,93 L0,93 L0,95 L9,95 L14.5,95 C18.0898509,95 21,92.0898509 21,88.5 C21,84.9101491 18.0898509,82 14.5,82 L8,82 L8,93 L6,93 L6,80 L14.5,80 C19.1944204,80 23,83.8055796 23,88.5 C23,93.1944204 19.1944204,97 14.5,97 L0,97 L0,99 L4,99 L4,111 L4,123 L0,123 L0,125 L4,125 L4,127 L0,127 L0,129 L4,129 L4,135 L4,135 Z M4,0 L6,0 L6,5 L0,5 L0,3 L4,3 L4,0 L4,0 Z M108.743941,135 L110.826068,135 C110.939811,134.518481 111,134.016269 111,133.5 C111,129.910149 108.089851,127 104.5,127 L98,127 L98,135 L100,135 L100,129 L104.5,129 C106.985281,129 109,131.014719 109,133.5 C109,134.025953 108.909769,134.530832 108.743941,135 L108.743941,135 Z M0,54.0274644 L0,52.0189448 L1.84741111e-13,52.0189448 C3.35622386,52.2742573 6,55.0783851 6,58.5 C6,61.9216149 3.35622386,64.7257427 0,64.9810552 L0,62.9725356 C2.24997523,62.7238135 4,60.8162768 4,58.5 C4,56.1837232 2.24997523,54.2761865 3.68061137e-12,54.0274644 L0,54.0274644 Z M135,54.0274644 L135,52.0189448 C134.834979,52.0063915 134.668236,52 134.5,52 L128,52 L128,63 L126,63 L126,50 L134.5,50 C134.667847,50 134.834559,50.004865 135,50.0144618 L135,48.0058476 L135,48 L124,48 L124,63 L115,63 L115,51 L115,39 L120,39 L120,38.9883049 C125.566817,38.7273284 130,34.1313769 130,28.5 C130,22.8686231 125.566817,18.2726716 120,18.0116951 L120,18 L109,18 L109,33 L100,33 L100,21 L100,9 L105,9 L105,8.9883049 C110.063373,8.75093022 114.188885,4.92720572 114.893667,0 L114.893667,0 L112.868067,0 C112.1596,3.97901637 108.682594,7 104.5,7 L85,7 L85,5 L99,5 L104.5,5 C107.573582,5 110.148904,2.8667 110.826068,1.42108547e-14 L108.743941,1.42108547e-14 C108.126187,1.74778856 106.459328,3 104.5,3 L100,3 L100,0 L98,0 L98,3 L96,3 L96,0 L94,0 L94,3 L85,3 L85,0 L83,0 L83,22 L74.5,22 C69.8055796,22 66,18.1944204 66,13.5 C66,8.80557963 69.8055796,5 74.5,5 L79,5 L79,7 L74.5,7 C70.9101491,7 68,9.91014913 68,13.5 C68,17.0898509 70.9101491,20 74.5,20 L81,20 L81,9 L81,4 L81,0 L79,0 L79,3 L74,3 L74,3.0116951 C68.4331832,3.27267158 64,7.86862308 64,13.5 C64,19.1313769 68.4331832,23.7273284 74,23.9883049 L74,24 L85,24 L85,9 L94,9 L94,21 L94,33 L89,33 L89,33.0116951 C83.4331832,33.2726716 79,37.8686231 79,43.5 C79,49.1313769 83.4331832,53.7273284 89,53.9883049 L89,54 L100,54 L100,39 L109,39 L109,51 L109,63 L104,63 L104,63.0116951 C98.4331832,63.2726716 94,67.8686231 94,73.5 C94,79.1313769 98.4331832,83.7273284 104,83.9883049 L104,84 L115,84 L115,69 L124,69 L124,81 L124,93 L119,93 L119,93.0116951 C113.433183,93.2726716 109,97.8686231 109,103.5 C109,109.131377 113.433183,113.727328 119,113.988305 L119,114 L130,114 L130,99 L135,99 L135,97 L130,97 L130,95 L135,95 L135,95 L135,93 L130,93 L130,81 L130,69 L135,69 L135,68.9941524 L135,66.9855382 C134.834559,66.995135 134.667847,67 134.5,67 L115,67 L115,65 L129,65 L134.5,65 C134.668236,65 134.834979,64.9936085 135,64.9810552 L135,62.9725356 C134.835833,62.9906833 134.669005,63 134.5,63 L130,63 L130,54 L134.5,54 C134.669005,54 134.835833,54.0093167 135,54.0274644 L135,54.0274644 Z M112.868067,135 L114.893667,135 C114.963742,134.510096 115,134.009282 115,133.5 C115,127.868623 110.566817,123.272672 105,123.011695 L105,123 L94,123 L94,135 L96,135 L96,125 L104.5,125 C109.19442,125 113,128.80558 113,133.5 C113,134.011826 112.954762,134.513086 112.868067,135 L112.868067,135 Z M83,135 L85,135 L85,135 L85,126 L85,114 L90,114 L90,113.988305 C95.5668168,113.727328 100,109.131377 100,103.5 C100,97.8686231 95.5668168,93.2726716 90,93.0116951 L90,93 L79,93 L79,108 L70,108 L70,96 L70,84 L75,84 L75,83.9883049 C80.5668168,83.7273284 85,79.1313769 85,73.5 C85,67.8686231 80.5668168,63.2726716 75,63.0116951 L75,63 L64,63 L64,78 L55,78 L55,66 L55,54 L60,54 L60,53.9883049 C65.5668168,53.7273284 70,49.1313769 70,43.5 C70,37.8686231 65.5668168,33.2726716 60,33.0116951 L60,33 L49,33 L49,48 L40,48 L40,36 L40,24 L45,24 L45,23.9883049 C50.5668168,23.7273284 55,19.1313769 55,13.5 C55,7.86862308 50.5668168,3.27267158 45,3.0116951 L45,3 L34,3 L34,18 L25,18 L25,6 L25,0 L25,0 L23,0 L23,37 L14.5,37 C9.80557963,37 6,33.1944204 6,28.5 C6,23.8055796 9.80557963,20 14.5,20 L19,20 L19,22 L14.5,22 C10.9101491,22 8,24.9101491 8,28.5 C8,32.0898509 10.9101491,35 14.5,35 L21,35 L21,24 L21,19 L21,0 L19,0 L19,6 L19,18 L14,18 L14,18.0116951 C8.4331832,18.2726716 4,22.8686231 4,28.5 C4,34.1313769 8.4331832,38.7273284 14,38.9883049 L14,39 L25,39 L25,24 L34,24 L34,36 L34,48 L29,48 L29,48.0116951 C23.4331832,48.2726716 19,52.8686231 19,58.5 C19,64.1313769 23.4331832,68.7273284 29,68.9883049 L29,69 L40,69 L40,54 L49,54 L49,66 L49,78 L44,78 L44,78.0116951 C38.4331832,78.2726716 34,82.8686231 34,88.5 C34,94.1313769 38.4331832,98.7273284 44,98.9883049 L44,99 L55,99 L55,84 L64,84 L64,96 L64,108 L59,108 L59,108.011695 C53.4331832,108.272672 49,112.868623 49,118.5 C49,124.131377 53.4331832,128.727328 59,128.988305 L59,129 L70,129 L70,114 L79,114 L79,126 L79,135 L81,135 L81,114 L83,114 L83,135 L83,135 L83,135 Z M135,7 L135,9 L134,9 L134,8.9883049 C128.936627,8.75093022 124.811115,4.92720572 124.106333,0 L124.106333,0 L126.131933,0 C126.8404,3.97901637 130.317406,7 134.5,7 L135,7 L135,7 L135,7 Z M126.131933,135 L124.106333,135 C124.036258,134.510096 124,134.009282 124,133.5 C124,127.868623 128.433183,123.272672 134,123.011695 L134,123 L135,123 L135,125 L134.5,125 C129.80558,125 126,128.80558 126,133.5 C126,134.011826 126.045238,134.513086 126.131933,135 L126.131933,135 L126.131933,135 Z M0,50.0144618 L0,48.0058476 L0,48.0116951 C5.5668168,48.2726716 10,52.8686231 10,58.5 C10,64.1313769 5.5668168,68.7273284 0,68.9883049 L0,68.9941524 L0,66.9855382 C4.46168974,66.7267293 8,63.026573 8,58.5 C8,53.973427 4.46168974,50.2732707 5.68434189e-14,50.0144618 L0,50.0144618 L0,50.0144618 Z M8,0 L10,0 L10,9 L0,9 L0,7 L8,7 L8,0 L8,0 Z M44.5,20 C48.0898509,20 51,17.0898509 51,13.5 C51,9.91014913 48.0898509,7 44.5,7 L38,7 L38,18 L36,18 L36,5 L44.5,5 C49.1944204,5 53,8.80557963 53,13.5 C53,18.1944204 49.1944204,22 44.5,22 L25,22 L25,20 L39,20 L44.5,20 L44.5,20 Z M36,49 L36,24 L38,24 L38,67 L29.5,67 C24.8055796,67 21,63.1944204 21,58.5 C21,53.8055796 24.8055796,50 29.5,50 L34,50 L34,52 L29.5,52 C25.9101491,52 23,54.9101491 23,58.5 C23,62.0898509 25.9101491,65 29.5,65 L36,65 L36,54 L36,49 L36,49 Z M59.5,50 C63.0898509,50 66,47.0898509 66,43.5 C66,39.9101491 63.0898509,37 59.5,37 L53,37 L53,48 L51,48 L51,35 L59.5,35 C64.1944204,35 68,38.8055796 68,43.5 C68,48.1944204 64.1944204,52 59.5,52 L40,52 L40,50 L54,50 L59.5,50 L59.5,50 Z M96,34 L96,9 L98,9 L98,52 L89.5,52 C84.8055796,52 81,48.1944204 81,43.5 C81,38.8055796 84.8055796,35 89.5,35 L94,35 L94,37 L89.5,37 C85.9101491,37 83,39.9101491 83,43.5 C83,47.0898509 85.9101491,50 89.5,50 L96,50 L96,39 L96,34 L96,34 Z M119.5,35 C123.089851,35 126,32.0898509 126,28.5 C126,24.9101491 123.089851,22 119.5,22 L113,22 L113,33 L111,33 L111,20 L119.5,20 C124.19442,20 128,23.8055796 128,28.5 C128,33.1944204 124.19442,37 119.5,37 L100,37 L100,35 L114,35 L119.5,35 L119.5,35 Z M111,64 L111,39 L113,39 L113,82 L104.5,82 C99.8055796,82 96,78.1944204 96,73.5 C96,68.8055796 99.8055796,65 104.5,65 L109,65 L109,67 L104.5,67 C100.910149,67 98,69.9101491 98,73.5 C98,77.0898509 100.910149,80 104.5,80 L111,80 L111,69 L111,64 L111,64 Z M126,94 L126,69 L128,69 L128,112 L119.5,112 C114.80558,112 111,108.19442 111,103.5 C111,98.8055796 114.80558,95 119.5,95 L124,95 L124,97 L119.5,97 C115.910149,97 113,99.9101491 113,103.5 C113,107.089851 115.910149,110 119.5,110 L126,110 L126,99 L126,94 L126,94 Z M51,79 L51,54 L53,54 L53,97 L44.5,97 C39.8055796,97 36,93.1944204 36,88.5 C36,83.8055796 39.8055796,80 44.5,80 L49,80 L49,82 L44.5,82 C40.9101491,82 38,84.9101491 38,88.5 C38,92.0898509 40.9101491,95 44.5,95 L51,95 L51,84 L51,79 L51,79 Z M74.5,80 C78.0898509,80 81,77.0898509 81,73.5 C81,69.9101491 78.0898509,67 74.5,67 L68,67 L68,78 L66,78 L66,65 L74.5,65 C79.1944204,65 83,68.8055796 83,73.5 C83,78.1944204 79.1944204,82 74.5,82 L55,82 L55,80 L69,80 L74.5,80 L74.5,80 Z M29.5,125 C33.0898509,125 36,122.089851 36,118.5 C36,114.910149 33.0898509,112 29.5,112 L23,112 L23,123 L21,123 L21,110 L29.5,110 C34.1944204,110 38,113.80558 38,118.5 C38,123.19442 34.1944204,127 29.5,127 L10,127 L10,125 L24,125 L29.5,125 L29.5,125 Z M66,109 L66,84 L68,84 L68,127 L59.5,127 C54.8055796,127 51,123.19442 51,118.5 C51,113.80558 54.8055796,110 59.5,110 L64,110 L64,112 L59.5,112 C55.9101491,112 53,114.910149 53,118.5 C53,122.089851 55.9101491,125 59.5,125 L66,125 L66,114 L66,109 L66,109 Z M89.5,110 C93.0898509,110 96,107.089851 96,103.5 C96,99.9101491 93.0898509,97 89.5,97 L83,97 L83,108 L81,108 L81,95 L89.5,95 C94.1944204,95 98,98.8055796 98,103.5 C98,108.19442 94.1944204,112 89.5,112 L70,112 L70,110 L84,110 L89.5,110 L89.5,110 Z M44.5,9 C46.9852814,9 49,11.0147186 49,13.5 C49,15.9852814 46.9852814,18 44.5,18 L40,18 L40,9 L44.5,9 L44.5,9 Z M59.5,39 C61.9852814,39 64,41.0147186 64,43.5 C64,45.9852814 61.9852814,48 59.5,48 L55,48 L55,39 L59.5,39 L59.5,39 Z M119.5,24 C121.985281,24 124,26.0147186 124,28.5 C124,30.9852814 121.985281,33 119.5,33 L115,33 L115,24 L119.5,24 L119.5,24 Z M14.5,84 C16.9852814,84 19,86.0147186 19,88.5 C19,90.9852814 16.9852814,93 14.5,93 L10,93 L10,84 L14.5,84 L14.5,84 Z M29.5,114 C31.9852814,114 34,116.014719 34,118.5 C34,120.985281 31.9852814,123 29.5,123 L25,123 L25,114 L29.5,114 L29.5,114 Z M74.5,69 C76.9852814,69 79,71.0147186 79,73.5 C79,75.9852814 76.9852814,78 74.5,78 L70,78 L70,69 L74.5,69 L74.5,69 Z M89.5,99 C91.9852814,99 94,101.014719 94,103.5 C94,105.985281 91.9852814,108 89.5,108 L85,108 L85,99 L89.5,99 L89.5,99 Z M14.5,24 C12.0147186,24 10,26.0147186 10,28.5 C10,30.9852814 12.0147186,33 14.5,33 L19,33 L19,24 L14.5,24 L14.5,24 Z M44.5,84 C42.0147186,84 40,86.0147186 40,88.5 C40,90.9852814 42.0147186,93 44.5,93 L49,93 L49,84 L44.5,84 L44.5,84 Z M59.5,114 C57.0147186,114 55,116.014719 55,118.5 C55,120.985281 57.0147186,123 59.5,123 L64,123 L64,114 L59.5,114 L59.5,114 Z M29.5,54 C27.0147186,54 25,56.0147186 25,58.5 C25,60.9852814 27.0147186,63 29.5,63 L34,63 L34,54 L29.5,54 L29.5,54 Z M89.5,39 C87.0147186,39 85,41.0147186 85,43.5 C85,45.9852814 87.0147186,48 89.5,48 L94,48 L94,39 L89.5,39 L89.5,39 Z M74.5,9 C72.0147186,9 70,11.0147186 70,13.5 C70,15.9852814 72.0147186,18 74.5,18 L79,18 L79,9 L74.5,9 L74.5,9 Z M119.5,99 C117.014719,99 115,101.014719 115,103.5 C115,105.985281 117.014719,108 119.5,108 L124,108 L124,99 L119.5,99 L119.5,99 Z M104.5,69 C102.014719,69 100,71.0147186 100,73.5 C100,75.9852814 102.014719,78 104.5,78 L109,78 L109,69 L104.5,69 L104.5,69 Z" id="Combined-Shape"></path>
        </g>
    </g>
</svg>